<svg xmlns="http://www.w3.org/2000/svg" width="15" height="15" viewBox="0 0 15 15"><g transform="translate(0 0)"><circle fill="#b1b1b1" cx="0.586" cy="0.586" r="0.586" transform="translate(10.723 5.566)"/><path fill="#b1b1b1" d="M12.656,1.172h-.762V.586a.586.586,0,0,0-1.172,0v.586H8.057V.586a.586.586,0,1,0-1.172,0v.586H4.248V.586a.586.586,0,1,0-1.172,0v.586H2.344A2.346,2.346,0,0,0,0,3.516v9.141A2.346,2.346,0,0,0,2.344,15H6.826a.586.586,0,1,0,0-1.172H2.344a1.173,1.173,0,0,1-1.172-1.172V3.516A1.173,1.173,0,0,1,2.344,2.344h.732V2.93a.586.586,0,1,0,1.172,0V2.344H6.885V2.93a.586.586,0,1,0,1.172,0V2.344h2.666V2.93a.586.586,0,1,0,1.172,0V2.344h.762a1.173,1.173,0,0,1,1.172,1.172v3.34a.586.586,0,1,0,1.172,0V3.516A2.346,2.346,0,0,0,12.656,1.172Z" transform="translate(0 0)"/><path fill="#b1b1b1" d="M273.545,270a3.545,3.545,0,1,0,3.545,3.545A3.549,3.549,0,0,0,273.545,270Zm0,5.918a2.373,2.373,0,1,1,2.373-2.373A2.376,2.376,0,0,1,273.545,275.918Z" transform="translate(-262.09 -262.09)"/><path fill="#b1b1b1" d="M372.436,331.2h-.264v-.615a.586.586,0,1,0-1.172,0v1.2a.586.586,0,0,0,.586.586h.85a.586.586,0,0,0,0-1.172Z" transform="translate(-360.131 -320.332)"/><circle fill="#b1b1b1" cx="0.586" cy="0.586" r="0.586" transform="translate(8.174 5.566)"/><circle fill="#b1b1b1" cx="0.586" cy="0.586" r="0.586" transform="translate(5.625 8.115)"/><circle fill="#b1b1b1" cx="0.586" cy="0.586" r="0.586" transform="translate(3.076 5.566)"/><circle fill="#b1b1b1" cx="0.586" cy="0.586" r="0.586" transform="translate(3.076 8.115)"/><circle fill="#b1b1b1" cx="0.586" cy="0.586" r="0.586" transform="translate(3.076 10.664)"/><circle fill="#b1b1b1" cx="0.586" cy="0.586" r="0.586" transform="translate(5.625 10.664)"/><circle fill="#b1b1b1" cx="0.586" cy="0.586" r="0.586" transform="translate(5.625 5.566)"/></g></svg>
