<svg xmlns="http://www.w3.org/2000/svg" width="10.869" height="10" viewBox="0 0 10.869 10"><defs><style>.a{opacity:0.8;}.b{fill:#fff;}</style></defs><g class="a" transform="translate(-0.001 1.332)"><path class="b" d="M9.376-1.332H1.5A1.5,1.5,0,0,0,0,.162V4.985A1.5,1.5,0,0,0,1.49,6.479V8.668L4.635,6.479H9.376A1.5,1.5,0,0,0,10.87,4.985V.162A1.5,1.5,0,0,0,9.376-1.332Zm.857,6.317a.858.858,0,0,1-.857.857H4.435L2.127,7.449V5.843H1.5a.858.858,0,0,1-.857-.857V.162A.858.858,0,0,1,1.5-.7H9.376a.858.858,0,0,1,.857.857Zm0,0" transform="translate(0 0)"/><path class="b" d="M171.293,131.172h5.051v.637h-5.051Zm0,0" transform="translate(-168.383 -130.254)"/><path class="b" d="M171.293,211.172h5.051v.637h-5.051Zm0,0" transform="translate(-168.383 -208.895)"/><path class="b" d="M171.293,291.172h5.051v.637h-5.051Zm0,0" transform="translate(-168.383 -287.536)"/></g></svg>