<svg xmlns="http://www.w3.org/2000/svg" width="13.75" height="15" viewBox="0 0 13.75 15"><path fill="#dfdfdf" d="M5.469,115.73a2.66,2.66,0,0,1-2.656-2.656v-6.406H1.719A1.72,1.72,0,0,0,0,108.387v8.437a1.72,1.72,0,0,0,1.719,1.719H9.531a1.72,1.72,0,0,0,1.719-1.719V115.73Zm0,0" transform="translate(0 -103.543)"/><path fill="#dfdfdf" d="M138,1.719A1.719,1.719,0,0,0,136.281,0h-6.563A1.719,1.719,0,0,0,128,1.719V9.531a1.719,1.719,0,0,0,1.719,1.719h6.563A1.719,1.719,0,0,0,138,9.531Zm0,0" transform="translate(-124.25)"/></svg>
