<svg xmlns="http://www.w3.org/2000/svg" width="16" height="12.187" viewBox="0 0 16 12.187"><defs><style>.a{fill:#56af69;}</style></defs><g transform="translate(0 -61)"><g transform="translate(0.804 61)"><path class="a" d="M39.511,61H26.323a1.39,1.39,0,0,0-.6.141l7.165,7.165,1.606-1.543h0l5.621-5.621A1.39,1.39,0,0,0,39.511,61Z" transform="translate(-25.721 -61)"/></g><g transform="translate(10.569 61.804)"><path class="a" d="M343.5,86.728l-5.29,5.29,5.29,5.29a1.39,1.39,0,0,0,.141-.6V87.33A1.391,1.391,0,0,0,343.5,86.728Z" transform="translate(-338.213 -86.728)"/></g><g transform="translate(0 61.804)"><path class="a" d="M.141,86.721a1.39,1.39,0,0,0-.141.6V96.7a1.39,1.39,0,0,0,.141.6l5.29-5.29Z" transform="translate(0 -86.721)"/></g><g transform="translate(0.804 67.757)"><path class="a" d="M34.817,277.211l-1.606,1.544a.469.469,0,0,1-.663,0L31,277.211l-5.29,5.29a1.39,1.39,0,0,0,.6.141H39.5a1.39,1.39,0,0,0,.6-.141Z" transform="translate(-25.714 -277.211)"/></g></g></svg>