<svg xmlns="http://www.w3.org/2000/svg" width="28" height="21.328" viewBox="0 0 28 21.328"><g transform="translate(1.407 0)"><path fill="#fff" d="M49.853,61H26.775a2.432,2.432,0,0,0-1.054.247L38.26,73.785l2.81-2.7h0l9.838-9.837A2.432,2.432,0,0,0,49.853,61Z" transform="translate(-25.721 -61)"/></g><g transform="translate(18.496 1.407)"><path fill="#fff" d="M347.471,86.728l-9.258,9.257,9.257,9.257a2.433,2.433,0,0,0,.247-1.054V87.782A2.433,2.433,0,0,0,347.471,86.728Z" transform="translate(-338.213 -86.728)"/></g><g transform="translate(0 1.407)"><path fill="#fff" d="M.247,86.721A2.432,2.432,0,0,0,0,87.775v16.406a2.433,2.433,0,0,0,.246,1.054L9.5,95.978Z" transform="translate(0 -86.721)"/></g><g transform="translate(1.406 11.824)"><path fill="#fff" d="M41.644,277.211l-2.811,2.7a.82.82,0,0,1-1.16,0l-2.7-2.7-9.258,9.257a2.432,2.432,0,0,0,1.055.247H49.847a2.433,2.433,0,0,0,1.054-.247Z" transform="translate(-25.714 -277.211)"/></g></svg>
