<svg xmlns="http://www.w3.org/2000/svg" width="20.141" height="20" viewBox="0 0 20.141 20"><defs><style>.a{fill:#fff;}</style></defs><g transform="translate(0 -1.107)"><path class="a" d="M205.223,1.107H200.7a.476.476,0,0,0-.476.476v1.27a.476.476,0,0,0,.476.476h1.2l-3.627,3.627a.476.476,0,0,0,0,.673l.9.9a.476.476,0,0,0,.674,0L203.477,4.9v1.2a.476.476,0,0,0,.476.476h1.27a.476.476,0,0,0,.476-.476V1.583A.476.476,0,0,0,205.223,1.107Z" transform="translate(-185.559 0)"/><path class="a" d="M3.794,3.329H5a.476.476,0,0,0,.476-.476V1.583A.476.476,0,0,0,5,1.107H.476A.476.476,0,0,0,0,1.583V6.105a.476.476,0,0,0,.476.476h1.27a.476.476,0,0,0,.476-.476V4.9L5.849,8.528a.476.476,0,0,0,.674,0l.9-.9a.476.476,0,0,0,0-.673Z"/><path class="a" d="M6.523,197.176a.476.476,0,0,0-.674,0L2.222,200.8v-1.2a.476.476,0,0,0-.476-.476H.476A.476.476,0,0,0,0,199.6v4.522a.476.476,0,0,0,.476.476H5a.476.476,0,0,0,.476-.476v-1.27A.476.476,0,0,0,5,202.374h-1.2l3.627-3.627a.476.476,0,0,0,0-.673Z" transform="translate(0 -183.489)"/><path class="a" d="M205.223,199.123h-1.27a.476.476,0,0,0-.476.476v1.2l-3.627-3.627a.476.476,0,0,0-.673,0l-.9.9a.476.476,0,0,0,0,.673l3.627,3.627h-1.2a.476.476,0,0,0-.476.476v1.27a.476.476,0,0,0,.476.476h4.522a.476.476,0,0,0,.476-.476V199.6A.476.476,0,0,0,205.223,199.123Z" transform="translate(-185.559 -183.49)"/></g></svg>