<svg xmlns="http://www.w3.org/2000/svg" width="20.132" height="16.276" viewBox="0 0 20.132 16.276"><g transform="translate(-1.367 8.424) rotate(-30)"><path d="M140.172,70.086h7.269v3.583h-7.269Zm0,0" transform="translate(-133.709 -66.377)"/><path d="M404.669,48.953h-.5v5.283h.5a1.057,1.057,0,0,0,1.056-1.056V50.009a1.057,1.057,0,0,0-1.056-1.056Zm0,0" transform="translate(-385.529 -46.219)"/><path d="M319.831.5h-2v10h2a1.057,1.057,0,0,0,1.056-1.056V1.556A1.057,1.057,0,0,0,319.831.5Zm0,0" transform="translate(-303.174 0)"/><path d="M53.836,1.556V9.444A1.057,1.057,0,0,0,54.892,10.5h2V.5h-2a1.057,1.057,0,0,0-1.056,1.056Zm0,0" transform="translate(-51.354)"/><path d="M0,50.009v3.172a1.057,1.057,0,0,0,1.056,1.056h.5V48.953h-.5A1.057,1.057,0,0,0,0,50.009Zm0,0" transform="translate(0 -46.219)"/></g></svg>
