<svg xmlns="http://www.w3.org/2000/svg" width="16.363" height="15" viewBox="0 0 16.363 15"><defs><style>.a{opacity:0.3;}.b{fill:#fff;}</style></defs><g class="a" transform="translate(0 -21.33)"><g transform="translate(0 21.33)"><g transform="translate(0 0)"><path class="b" d="M14.789,27.375a.34.34,0,0,0-.372.074l-2.1,2.1a1.018,1.018,0,0,1-.522.28l-1.7.341a1.022,1.022,0,0,1-1.2-1.2l.3-1.5H3.75a.341.341,0,1,1,0-.682H9.473c.012-.013.019-.03.031-.042l1.322-1.321H3.75a.341.341,0,1,1,0-.682h7.5a.332.332,0,0,1,.191.066l2.212-2.212a1.97,1.97,0,0,1,.671-.437.341.341,0,0,0,.061-.6,1.361,1.361,0,0,0-.75-.225H1.364A1.365,1.365,0,0,0,0,22.694v13.3a.341.341,0,0,0,.21.315.337.337,0,0,0,.13.026.341.341,0,0,0,.241-.1l3.309-3.309h9.745A1.365,1.365,0,0,0,15,31.557V27.69A.341.341,0,0,0,14.789,27.375ZM7.841,29.512H3.75a.341.341,0,0,1,0-.682H7.841a.341.341,0,1,1,0,.682Z" transform="translate(0 -21.33)"/><path class="b" d="M304.177,64a1.313,1.313,0,0,0-.923.382l-4.15,4.149a.339.339,0,0,0-.093.174l-.341,1.705a.341.341,0,0,0,.334.408.348.348,0,0,0,.067-.007l1.7-.341a.339.339,0,0,0,.174-.093l4.15-4.149h0A1.3,1.3,0,0,0,304.177,64Zm-.541,2.727-.882-.882.482-.482.882.882Z" transform="translate(-289.118 -62.636)"/></g></g></g></svg>