<svg xmlns="http://www.w3.org/2000/svg" width="24.5" height="13" viewBox="0 0 24.5 13"><defs><style>.a{opacity:0.3;}.b{fill:none;stroke:#fff;}.c{fill:#fff;}</style></defs><g class="a" transform="translate(0.5 0.5)"><g transform="translate(0 0)"><path class="b" d="M13.3,96.512H2.573A2.429,2.429,0,0,0,0,98.747v7.531a2.429,2.429,0,0,0,2.573,2.235H13.3a2.429,2.429,0,0,0,2.573-2.235V98.747A2.414,2.414,0,0,0,13.3,96.512Z" transform="translate(0 -96.512)"/></g><g transform="translate(15.431 1.42)"><g transform="translate(0 0)"><path class="c" d="M346.1,123.882a1.559,1.559,0,0,0-.452.149l-4.149,1.915v4.936l4.175,1.915a1.81,1.81,0,0,0,2.181-.468,1.107,1.107,0,0,0,.213-.638v-6.574A1.55,1.55,0,0,0,346.1,123.882Z" transform="translate(-339.504 -123.847)"/></g></g></g></svg>