<svg xmlns="http://www.w3.org/2000/svg" width="20" height="11.269" viewBox="0 0 20 11.269"><defs><style>.a{opacity:0.3;}.b,.d{fill:none;}.b{stroke:#fff;}.c{fill:#fff;}.d{stroke:#56af69;stroke-linecap:round;}</style></defs><g transform="translate(-1445.679 -253.01)"><g class="a" transform="translate(1447.217 253.51)"><g transform="translate(0 0)"><path class="b" d="M10.232,96.512H1.979A1.868,1.868,0,0,0,0,98.231v5.793a1.868,1.868,0,0,0,1.979,1.719h8.253a1.868,1.868,0,0,0,1.979-1.719V98.231A1.857,1.857,0,0,0,10.232,96.512Z" transform="translate(0 -96.512)"/></g><g transform="translate(13.409 1.092)"><g transform="translate(0 0)"><path class="c" d="M345.043,123.874a1.2,1.2,0,0,0-.348.115l-3.191,1.473v3.8l3.212,1.473a1.392,1.392,0,0,0,1.677-.36.851.851,0,0,0,.164-.491v-5.057A1.193,1.193,0,0,0,345.043,123.874Z" transform="translate(-341.504 -123.847)"/></g></g></g><circle class="c" cx="3.846" cy="3.846" r="3.846" transform="translate(1445.679 256.587)"/><g transform="translate(1447.987 258.895)"><line class="d" x2="3.077" transform="translate(0 1.538)"/><line class="d" x2="3.077" transform="translate(1.538 0) rotate(90)"/></g></g></svg>