<svg xmlns="http://www.w3.org/2000/svg" width="16" height="12.188" viewBox="0 0 16 12.188">
  <g id="Group_3192" data-name="Group 3192" transform="translate(-353 -912)">
    <path id="Path_384" data-name="Path 384" d="M39.511,61H26.323a1.39,1.39,0,0,0-.6.141l7.165,7.165,1.606-1.543h0l5.621-5.621A1.39,1.39,0,0,0,39.511,61Z" transform="translate(328.083 851)" fill="#56af69"/>
    <path id="Path_385" data-name="Path 385" d="M343.5,86.728l-5.29,5.29,5.29,5.29a1.39,1.39,0,0,0,.141-.6V87.33A1.391,1.391,0,0,0,343.5,86.728Z" transform="translate(25.356 826.076)" fill="#56af69"/>
    <path id="Path_386" data-name="Path 386" d="M.141,86.721a1.39,1.39,0,0,0-.141.6V96.7a1.39,1.39,0,0,0,.141.6l5.29-5.29Z" transform="translate(353 826.083)" fill="#56af69"/>
    <path id="Path_387" data-name="Path 387" d="M34.817,277.211l-1.606,1.544a.469.469,0,0,1-.663,0L31,277.211l-5.29,5.29a1.39,1.39,0,0,0,.6.141H39.5a1.39,1.39,0,0,0,.6-.141Z" transform="translate(328.09 641.546)" fill="#56af69"/>
  </g>
</svg>
