<svg xmlns="http://www.w3.org/2000/svg" width="15.469" height="24" viewBox="0 0 15.469 24"><defs><style>.a{fill:#0e0e0e;}</style></defs><g transform="translate(-91)"><path class="a" d="M91.7,272a.7.7,0,0,0-.7.7,7.745,7.745,0,0,0,7.031,7.7v1.439H94.516a.7.7,0,0,0,0,1.406h8.438a.7.7,0,1,0,0-1.406H99.437v-1.439a7.745,7.745,0,0,0,7.031-7.7.7.7,0,0,0-1.406,0,6.328,6.328,0,0,1-12.656,0A.7.7,0,0,0,91.7,272Z" transform="translate(0 -259.25)"/><path class="a" d="M155.922,18.375a4.927,4.927,0,0,0,4.922-4.922V4.922a4.922,4.922,0,1,0-9.844,0v8.531A4.927,4.927,0,0,0,155.922,18.375ZM152.406,4.922a3.516,3.516,0,1,1,7.031,0v8.531a3.516,3.516,0,1,1-7.031,0Z" transform="translate(-57.188)"/></g></svg>