<svg xmlns="http://www.w3.org/2000/svg" width="12" height="14" viewBox="0 0 12 14">
  <g id="Polygon_1" data-name="Polygon 1" transform="translate(12) rotate(90)" fill="none" stroke-miterlimit="10" opacity="0.3">
    <path d="M5.272,2.962a2,2,0,0,1,3.455,0l3.518,6.031A2,2,0,0,1,10.518,12H3.482A2,2,0,0,1,1.755,8.992Z" stroke="none"/>
    <path d="M 7.000000476837158 2.969268798828125 C 6.827300548553467 2.969268798828125 6.397430419921875 3.017608642578125 6.136220455169678 3.465398788452148 L 2.618300437927246 9.496128082275391 C 2.355050086975098 9.947399139404297 2.528250694274902 10.34713840484619 2.614930152893066 10.4980583190918 C 2.701610565185547 10.64897918701172 2.959630012512207 10.99999904632568 3.482070922851562 10.99999904632568 L 10.51793098449707 10.99999904632568 C 11.04037094116211 10.99999904632568 11.29839038848877 10.64897918701172 11.38507080078125 10.4980583190918 C 11.47175025939941 10.34713840484619 11.64495086669922 9.947399139404297 11.38170051574707 9.496128082275391 L 7.863780498504639 3.465398788452148 C 7.602570533752441 3.017608642578125 7.17270040512085 2.969268798828125 7.000000476837158 2.969268798828125 M 7.000000476837158 1.969271659851074 C 7.670840263366699 1.969271659851074 8.341680526733398 2.300024032592773 8.727560043334961 2.961528778076172 L 12.24548053741455 8.992258071899414 C 13.02325057983398 10.32556915283203 12.06151008605957 11.99999904632568 10.51793098449707 11.99999904632568 L 3.482070922851562 11.99999904632568 C 1.938490867614746 11.99999904632568 0.976750373840332 10.32556915283203 1.754520416259766 8.992258071899414 L 5.272440910339355 2.961528778076172 C 5.658320426940918 2.300024032592773 6.329160690307617 1.969271659851074 7.000000476837158 1.969271659851074 Z" stroke="none" fill="#fff"/>
  </g>
</svg>
