<svg xmlns="http://www.w3.org/2000/svg" width="54.252" height="52.061" viewBox="0 0 54.252 52.061"><defs><style>.a{fill:none;stroke:#d2ca62;stroke-linecap:round;stroke-linejoin:round;stroke-width:2px;}</style></defs><path class="a" d="M52.039,19.386a2.768,2.768,0,0,0-2.387-1.907L34.592,16.112,28.638,2.174a2.773,2.773,0,0,0-5.1,0L17.583,16.112,2.521,17.479A2.776,2.776,0,0,0,.948,22.332L12.33,32.314,8.974,47.1a2.769,2.769,0,0,0,4.124,3l12.99-7.764L39.073,50.1a2.773,2.773,0,0,0,4.126-3L39.843,32.314l11.383-9.981a2.774,2.774,0,0,0,.813-2.948Zm0,0" transform="translate(1.039 0.509)"/></svg>